<svg xmlns="http://www.w3.org/2000/svg" xmlns:xlink="http://www.w3.org/1999/xlink" width="500" zoomAndPan="magnify" viewBox="0 0 375 374.999991" height="500" preserveAspectRatio="xMidYMid meet" version="1.0"><defs><g/><clipPath id="9b4c215579"><path d="M 130 193 L 274 193 L 274 240 L 130 240 Z M 130 193 " clip-rule="nonzero"/></clipPath><clipPath id="6ebc0e4b33"><path d="M 127.117188 228.128906 L 271.976562 189.199219 L 276.257812 205.132812 L 131.398438 244.0625 Z M 127.117188 228.128906 " clip-rule="nonzero"/></clipPath><clipPath id="590e0619c0"><path d="M 127.117188 228.128906 L 271.976562 189.199219 L 276.257812 205.132812 L 131.398438 244.0625 Z M 127.117188 228.128906 " clip-rule="nonzero"/></clipPath></defs><g fill="#ffffff" fill-opacity="1"><g transform="translate(102.67835, 201.372106)"><g><path d="M 28.328125 -57.78125 C 28.523438 -57.476562 28.660156 -57.15625 28.734375 -56.8125 C 28.816406 -56.46875 28.859375 -56.101562 28.859375 -55.71875 C 28.929688 -53.664062 28.585938 -51.171875 27.828125 -48.234375 C 27.078125 -45.304688 26.085938 -42.207031 24.859375 -38.9375 C 23.640625 -35.675781 22.300781 -32.421875 20.84375 -29.171875 C 19.394531 -25.929688 17.976562 -22.9375 16.59375 -20.1875 C 15.21875 -17.4375 14.039062 -15.117188 13.0625 -13.234375 C 12.875 -13.003906 12.804688 -12.703125 12.859375 -12.328125 C 12.890625 -12.171875 12.972656 -11.773438 13.109375 -11.140625 C 13.253906 -10.503906 13.445312 -9.914062 13.6875 -9.375 C 13.925781 -8.832031 14.175781 -8.582031 14.4375 -8.625 C 14.65625 -8.65625 14.914062 -8.773438 15.21875 -8.984375 C 16.0625 -9.472656 16.859375 -10.128906 17.609375 -10.953125 C 18.148438 -11.460938 18.675781 -11.992188 19.1875 -12.546875 C 19.707031 -13.109375 20.203125 -13.644531 20.671875 -14.15625 C 20.765625 -14.269531 20.859375 -14.390625 20.953125 -14.515625 C 21.046875 -14.640625 21.113281 -14.734375 21.15625 -14.796875 C 21.363281 -15.191406 21.65625 -15.414062 22.03125 -15.46875 C 22.25 -15.5 22.414062 -15.5 22.53125 -15.46875 C 23.09375 -15.332031 23.421875 -14.914062 23.515625 -14.21875 C 23.515625 -13.84375 23.40625 -13.472656 23.1875 -13.109375 C 23 -12.867188 22.820312 -12.640625 22.65625 -12.421875 C 22.5 -12.210938 22.359375 -11.992188 22.234375 -11.765625 C 21.617188 -11.023438 20.992188 -10.3125 20.359375 -9.625 C 19.722656 -8.9375 19.078125 -8.273438 18.421875 -7.640625 C 17.703125 -6.878906 16.941406 -6.28125 16.140625 -5.84375 C 15.734375 -5.582031 15.210938 -5.40625 14.578125 -5.3125 C 13.460938 -5.15625 12.460938 -5.472656 11.578125 -6.265625 C 11.140625 -6.753906 10.738281 -7.320312 10.375 -7.96875 C 10.363281 -8.019531 10.285156 -8.203125 10.140625 -8.515625 C 10.085938 -8.453125 10.039062 -8.390625 10 -8.328125 C 9.957031 -8.273438 9.882812 -8.1875 9.78125 -8.0625 C 9.019531 -6.914062 8.164062 -5.875 7.21875 -4.9375 C 6.59375 -4.34375 5.847656 -3.738281 4.984375 -3.125 C 4.117188 -2.519531 3.226562 -2.15625 2.3125 -2.03125 C 0.988281 -1.84375 0.0078125 -2.191406 -0.625 -3.078125 C -1.269531 -3.960938 -1.671875 -4.96875 -1.828125 -6.09375 C -2.003906 -7.375 -1.867188 -8.914062 -1.421875 -10.71875 C -0.972656 -12.53125 -0.289062 -14.203125 0.625 -15.734375 C 1.550781 -17.273438 2.582031 -18.289062 3.71875 -18.78125 C 4.125 -19.007812 4.507812 -19.148438 4.875 -19.203125 C 5.894531 -19.335938 6.707031 -18.984375 7.3125 -18.140625 C 7.800781 -17.390625 7.976562 -16.515625 7.84375 -15.515625 C 7.832031 -15.191406 7.765625 -14.875 7.640625 -14.5625 C 7.523438 -14.25 7.4375 -13.953125 7.375 -13.671875 C 7.351562 -13.441406 7.242188 -13.265625 7.046875 -13.140625 C 6.859375 -12.890625 6.632812 -12.75 6.375 -12.71875 C 6.15625 -12.6875 5.988281 -12.691406 5.875 -12.734375 C 5.414062 -12.929688 5.15625 -13.242188 5.09375 -13.671875 C 5.070312 -13.835938 5.0625 -14 5.0625 -14.15625 C 5.0625 -14.320312 5.082031 -14.484375 5.125 -14.640625 C 5.113281 -14.753906 5.117188 -14.882812 5.140625 -15.03125 C 5.171875 -15.175781 5.207031 -15.300781 5.25 -15.40625 C 5.226562 -15.507812 5.222656 -15.617188 5.234375 -15.734375 C 5.242188 -15.847656 5.1875 -15.976562 5.0625 -16.125 C 5.03125 -16.0625 4.988281 -16.007812 4.9375 -15.96875 C 4.882812 -15.9375 4.8125 -15.863281 4.71875 -15.75 C 3.03125 -13.5 2.046875 -11.019531 1.765625 -8.3125 C 1.640625 -7.644531 1.628906 -6.910156 1.734375 -6.109375 C 1.847656 -5.703125 1.988281 -5.507812 2.15625 -5.53125 C 2.3125 -5.550781 2.46875 -5.597656 2.625 -5.671875 C 3.34375 -5.929688 3.992188 -6.347656 4.578125 -6.921875 C 5.460938 -7.585938 6.195312 -8.316406 6.78125 -9.109375 C 7.15625 -9.597656 7.523438 -10.082031 7.890625 -10.5625 C 8.253906 -11.050781 8.59375 -11.53125 8.90625 -12 C 9.082031 -12.25 9.160156 -12.476562 9.140625 -12.6875 C 8.929688 -16.144531 9.113281 -19.960938 9.6875 -24.140625 C 10.269531 -28.328125 11.1875 -32.546875 12.4375 -36.796875 C 13.6875 -41.054688 15.289062 -45.019531 17.25 -48.6875 C 19.21875 -52.351562 21.46875 -55.375 24 -57.75 C 24.207031 -57.875 24.40625 -58.015625 24.59375 -58.171875 C 24.789062 -58.335938 24.988281 -58.460938 25.1875 -58.546875 C 25.40625 -58.628906 25.59375 -58.695312 25.75 -58.75 C 25.90625 -58.800781 26.085938 -58.835938 26.296875 -58.859375 C 27.148438 -58.984375 27.828125 -58.625 28.328125 -57.78125 Z M 26.578125 -54.609375 C 26.648438 -55.203125 26.613281 -55.816406 26.46875 -56.453125 C 26.269531 -56.316406 26.148438 -56.21875 26.109375 -56.15625 C 25.859375 -55.90625 25.613281 -55.664062 25.375 -55.4375 C 25.144531 -55.21875 24.914062 -54.953125 24.6875 -54.640625 C 22.851562 -52.546875 21.257812 -50.03125 19.90625 -47.09375 C 18.5625 -44.15625 17.410156 -41.054688 16.453125 -37.796875 C 15.503906 -34.546875 14.738281 -31.316406 14.15625 -28.109375 C 13.570312 -24.910156 13.140625 -21.984375 12.859375 -19.328125 C 12.773438 -19.097656 12.796875 -18.941406 12.921875 -18.859375 C 13.003906 -18.972656 13.066406 -19.070312 13.109375 -19.15625 C 13.148438 -19.25 13.203125 -19.328125 13.265625 -19.390625 C 14.492188 -21.785156 15.820312 -24.46875 17.25 -27.4375 C 18.6875 -30.40625 20.0625 -33.488281 21.375 -36.6875 C 22.6875 -39.894531 23.816406 -43.046875 24.765625 -46.140625 C 25.722656 -49.242188 26.328125 -52.066406 26.578125 -54.609375 Z M 26.578125 -54.609375 "/></g></g></g><g fill="#ffffff" fill-opacity="1"><g transform="translate(123.936867, 198.38806)"><g><path d="M 15.203125 -14.765625 C 15.304688 -14.835938 15.40625 -14.894531 15.5 -14.9375 C 15.601562 -14.976562 15.710938 -15.003906 15.828125 -15.015625 C 16.148438 -15.054688 16.457031 -14.960938 16.75 -14.734375 C 17.300781 -14.328125 17.375 -13.820312 16.96875 -13.21875 C 16.769531 -12.757812 16.269531 -12.066406 15.46875 -11.140625 C 14.675781 -10.210938 13.78125 -9.21875 12.78125 -8.15625 C 11.789062 -7.09375 10.851562 -6.113281 9.96875 -5.21875 C 9.09375 -4.332031 8.441406 -3.675781 8.015625 -3.25 C 7.535156 -2.800781 7.03125 -2.335938 6.5 -1.859375 C 5.96875 -1.378906 5.40625 -0.929688 4.8125 -0.515625 C 4.519531 -0.304688 4.207031 -0.113281 3.875 0.0625 C 3.550781 0.25 3.175781 0.394531 2.75 0.5 C 2.5625 0.582031 2.375 0.632812 2.1875 0.65625 C 2 0.6875 1.796875 0.71875 1.578125 0.75 C 1.523438 0.757812 1.457031 0.769531 1.375 0.78125 C 1.289062 0.789062 1.195312 0.800781 1.09375 0.8125 C 0.15625 0.789062 -0.679688 0.421875 -1.421875 -0.296875 C -1.941406 -0.867188 -2.328125 -1.488281 -2.578125 -2.15625 C -2.835938 -2.832031 -3.019531 -3.546875 -3.125 -4.296875 C -3.207031 -5.304688 -3.21875 -6.550781 -3.15625 -8.03125 C -3.09375 -9.507812 -2.914062 -10.945312 -2.625 -12.34375 C -2.332031 -13.75 -1.867188 -14.875 -1.234375 -15.71875 C -0.992188 -15.96875 -0.710938 -16.117188 -0.390625 -16.171875 C 0.191406 -16.242188 0.65625 -16.007812 1 -15.46875 C 1.132812 -15.320312 1.195312 -15.164062 1.1875 -15 C 1.1875 -14.84375 1.171875 -14.675781 1.140625 -14.5 C 1.097656 -14.382812 1.070312 -14.257812 1.0625 -14.125 C 1.0625 -14 1.039062 -13.878906 1 -13.765625 C 0.207031 -10.867188 -0.0078125 -7.976562 0.34375 -5.09375 C 0.3125 -4.882812 0.320312 -4.671875 0.375 -4.453125 C 0.4375 -4.234375 0.484375 -4.023438 0.515625 -3.828125 C 0.554688 -3.554688 0.675781 -3.300781 0.875 -3.0625 C 1.019531 -2.75 1.253906 -2.613281 1.578125 -2.65625 C 2.046875 -2.726562 2.460938 -2.867188 2.828125 -3.078125 C 3.128906 -3.285156 3.441406 -3.492188 3.765625 -3.703125 C 4.085938 -3.910156 4.394531 -4.148438 4.6875 -4.421875 C 5.46875 -5.003906 6.203125 -5.644531 6.890625 -6.34375 C 7.578125 -7.039062 8.289062 -7.710938 9.03125 -8.359375 C 9.976562 -9.304688 10.914062 -10.265625 11.84375 -11.234375 C 12.769531 -12.203125 13.679688 -13.164062 14.578125 -14.125 C 14.660156 -14.226562 14.757812 -14.34375 14.875 -14.46875 C 14.988281 -14.601562 15.097656 -14.703125 15.203125 -14.765625 Z M 1.390625 -20.25 C 1.210938 -20.050781 1.015625 -19.941406 0.796875 -19.921875 C 0.421875 -19.867188 0.125 -20.015625 -0.09375 -20.359375 C -0.175781 -20.515625 -0.238281 -20.671875 -0.28125 -20.828125 C -0.332031 -20.984375 -0.394531 -21.132812 -0.46875 -21.28125 C -0.445312 -21.507812 -0.445312 -21.703125 -0.46875 -21.859375 C -0.488281 -22.015625 -0.488281 -22.207031 -0.46875 -22.4375 C -0.414062 -22.875 -0.335938 -23.425781 -0.234375 -24.09375 C -0.140625 -24.757812 0.0507812 -25.382812 0.34375 -25.96875 C 0.644531 -26.550781 1.066406 -26.878906 1.609375 -26.953125 C 1.816406 -26.984375 1.972656 -26.984375 2.078125 -26.953125 C 2.648438 -26.816406 2.984375 -26.394531 3.078125 -25.6875 C 3.035156 -25.582031 3.007812 -25.445312 3 -25.28125 C 3 -25.113281 2.984375 -24.976562 2.953125 -24.875 C 2.578125 -23.664062 2.269531 -22.53125 2.03125 -21.46875 C 1.957031 -21.238281 1.867188 -21.007812 1.765625 -20.78125 C 1.660156 -20.550781 1.535156 -20.375 1.390625 -20.25 Z M 1.390625 -20.25 "/></g></g></g><g fill="#ffffff" fill-opacity="1"><g transform="translate(139.920722, 196.144414)"><g><path d="M 18.734375 -13.46875 C 19.210938 -13.15625 19.410156 -12.71875 19.328125 -12.15625 C 19.296875 -12 19.234375 -11.832031 19.140625 -11.65625 C 19.054688 -11.488281 18.972656 -11.3125 18.890625 -11.125 C 18.429688 -10.519531 17.984375 -9.925781 17.546875 -9.34375 C 17.117188 -8.757812 16.671875 -8.171875 16.203125 -7.578125 C 15.703125 -6.898438 15.144531 -6.21875 14.53125 -5.53125 C 13.925781 -4.851562 13.285156 -4.253906 12.609375 -3.734375 C 12.046875 -3.429688 11.554688 -3.25 11.140625 -3.1875 C 10.222656 -3.113281 9.515625 -3.503906 9.015625 -4.359375 C 8.796875 -4.660156 8.640625 -4.960938 8.546875 -5.265625 C 8.453125 -5.578125 8.382812 -5.867188 8.34375 -6.140625 C 8.1875 -6.867188 8.09375 -7.613281 8.0625 -8.375 C 8.039062 -9.144531 8.03125 -9.90625 8.03125 -10.65625 C 8.070312 -11.207031 8.109375 -11.753906 8.140625 -12.296875 C 8.171875 -12.847656 8.175781 -13.394531 8.15625 -13.9375 C 8.125 -14.15625 8.125 -14.347656 8.15625 -14.515625 C 8.007812 -14.390625 7.835938 -14.257812 7.640625 -14.125 C 6.429688 -12.976562 5.367188 -11.695312 4.453125 -10.28125 C 3.546875 -8.875 2.710938 -7.410156 1.953125 -5.890625 C 1.804688 -5.660156 1.660156 -5.410156 1.515625 -5.140625 C 1.367188 -4.867188 1.203125 -4.582031 1.015625 -4.28125 C 0.941406 -4.125 0.765625 -3.863281 0.484375 -3.5 C 0.253906 -3.238281 -0.046875 -3.082031 -0.421875 -3.03125 C -1.429688 -2.882812 -2.09375 -3.304688 -2.40625 -4.296875 C -2.570312 -4.722656 -2.632812 -5.175781 -2.59375 -5.65625 C -2.53125 -7.195312 -2.410156 -8.695312 -2.234375 -10.15625 C -2.054688 -11.625 -1.800781 -13.085938 -1.46875 -14.546875 C -1.425781 -14.660156 -1.382812 -14.773438 -1.34375 -14.890625 C -1.3125 -15.003906 -1.273438 -15.09375 -1.234375 -15.15625 C -1.003906 -15.507812 -0.625 -15.722656 -0.09375 -15.796875 C 0.4375 -15.816406 0.796875 -15.566406 0.984375 -15.046875 C 1.054688 -14.847656 1.101562 -14.65625 1.125 -14.46875 C 1.15625 -14.28125 1.1875 -14.082031 1.21875 -13.875 C 1.21875 -13.539062 1.210938 -13.195312 1.203125 -12.84375 C 1.203125 -12.5 1.171875 -12.15625 1.109375 -11.8125 C 1.078125 -11.59375 1.0625 -11.375 1.0625 -11.15625 C 1.070312 -10.9375 1.066406 -10.71875 1.046875 -10.5 C 1.054688 -10.394531 1.046875 -10.257812 1.015625 -10.09375 C 1.109375 -10.21875 1.191406 -10.320312 1.265625 -10.40625 C 1.335938 -10.5 1.394531 -10.578125 1.4375 -10.640625 C 2.207031 -11.722656 3.019531 -12.785156 3.875 -13.828125 C 4.738281 -14.878906 5.675781 -15.828125 6.6875 -16.671875 C 6.894531 -16.804688 7.085938 -16.914062 7.265625 -17 C 7.453125 -17.082031 7.648438 -17.160156 7.859375 -17.234375 C 7.960938 -17.253906 8.050781 -17.28125 8.125 -17.3125 C 8.195312 -17.351562 8.257812 -17.378906 8.3125 -17.390625 C 9.269531 -17.523438 9.9375 -17.234375 10.3125 -16.515625 C 10.6875 -15.804688 10.925781 -15.082031 11.03125 -14.34375 C 11.0625 -13.695312 11.101562 -13.0625 11.15625 -12.4375 C 11.21875 -11.820312 11.265625 -11.21875 11.296875 -10.625 C 11.328125 -10.039062 11.375 -9.425781 11.4375 -8.78125 C 11.5 -8.132812 11.570312 -7.519531 11.65625 -6.9375 C 11.851562 -7.070312 11.976562 -7.171875 12.03125 -7.234375 C 12.707031 -7.816406 13.304688 -8.414062 13.828125 -9.03125 C 14.378906 -9.695312 14.921875 -10.34375 15.453125 -10.96875 C 15.992188 -11.59375 16.515625 -12.210938 17.015625 -12.828125 C 17.054688 -12.992188 17.148438 -13.113281 17.296875 -13.1875 C 17.484375 -13.4375 17.738281 -13.582031 18.0625 -13.625 C 18.320312 -13.664062 18.546875 -13.613281 18.734375 -13.46875 Z M 18.734375 -13.46875 "/></g></g></g><g fill="#ffffff" fill-opacity="1"><g transform="translate(158.062393, 193.597877)"><g><path d="M 11.84375 -11.4375 C 12.476562 -11.144531 12.679688 -10.632812 12.453125 -9.90625 C 12.421875 -9.832031 12.394531 -9.753906 12.375 -9.671875 C 12.363281 -9.597656 12.335938 -9.503906 12.296875 -9.390625 C 12.253906 -9.316406 12.195312 -9.222656 12.125 -9.109375 C 12.0625 -9.003906 11.988281 -8.890625 11.90625 -8.765625 C 11.675781 -8.398438 11.4375 -8.050781 11.1875 -7.71875 C 10.9375 -7.382812 10.691406 -7.066406 10.453125 -6.765625 C 10.023438 -6.328125 9.585938 -5.859375 9.140625 -5.359375 C 8.703125 -4.859375 8.273438 -4.363281 7.859375 -3.875 C 6.804688 -2.75 5.570312 -1.84375 4.15625 -1.15625 C 3.738281 -0.988281 3.320312 -0.863281 2.90625 -0.78125 C 2.488281 -0.695312 2.0625 -0.625 1.625 -0.5625 C 1.082031 -0.59375 0.363281 -0.800781 -0.53125 -1.1875 C -1.425781 -1.582031 -1.914062 -2.070312 -2 -2.65625 C -2.144531 -2.851562 -2.21875 -2.976562 -2.21875 -3.03125 C -2.375 -3.394531 -2.507812 -3.785156 -2.625 -4.203125 C -2.738281 -4.617188 -2.820312 -5.007812 -2.875 -5.375 C -3.007812 -6.34375 -3.023438 -7.425781 -2.921875 -8.625 C -2.679688 -10.082031 -2.300781 -11.457031 -1.78125 -12.75 C -1.269531 -14.039062 -0.578125 -15.265625 0.296875 -16.421875 C 0.578125 -16.734375 0.875 -17.035156 1.1875 -17.328125 C 1.5 -17.617188 1.832031 -17.894531 2.1875 -18.15625 C 2.425781 -18.300781 2.675781 -18.414062 2.9375 -18.5 C 3.195312 -18.59375 3.460938 -18.660156 3.734375 -18.703125 C 4.328125 -18.785156 4.847656 -18.757812 5.296875 -18.625 C 5.742188 -18.5 6.117188 -18.160156 6.421875 -17.609375 C 6.710938 -16.992188 6.828125 -16.304688 6.765625 -15.546875 C 6.648438 -13.785156 6.015625 -11.96875 4.859375 -10.09375 C 3.703125 -8.226562 2.441406 -6.765625 1.078125 -5.703125 C 0.878906 -5.515625 0.820312 -5.3125 0.90625 -5.09375 C 1.175781 -4.382812 1.546875 -4.0625 2.015625 -4.125 C 2.234375 -4.15625 2.394531 -4.203125 2.5 -4.265625 C 4.007812 -4.742188 5.453125 -5.675781 6.828125 -7.0625 C 8.210938 -8.457031 9.363281 -9.757812 10.28125 -10.96875 C 10.5 -11.28125 10.796875 -11.460938 11.171875 -11.515625 C 11.441406 -11.546875 11.664062 -11.519531 11.84375 -11.4375 Z M 0.859375 -9.484375 C 0.835938 -9.328125 0.8125 -9.148438 0.78125 -8.953125 C 0.757812 -8.753906 0.734375 -8.578125 0.703125 -8.421875 C 0.804688 -8.429688 0.859375 -8.4375 0.859375 -8.4375 C 0.859375 -8.4375 0.882812 -8.441406 0.9375 -8.453125 C 1.738281 -9.316406 2.410156 -10.222656 2.953125 -11.171875 C 3.503906 -12.128906 3.890625 -13.140625 4.109375 -14.203125 C 4.191406 -14.410156 4.242188 -14.628906 4.265625 -14.859375 C 4.285156 -15.085938 4.3125 -15.304688 4.34375 -15.515625 C 4.320312 -15.628906 4.304688 -15.722656 4.296875 -15.796875 C 4.285156 -15.878906 4.273438 -15.972656 4.265625 -16.078125 C 4.117188 -15.953125 3.992188 -15.851562 3.890625 -15.78125 C 3.785156 -15.71875 3.691406 -15.628906 3.609375 -15.515625 C 3.140625 -15.003906 2.796875 -14.519531 2.578125 -14.0625 C 2.148438 -13.34375 1.796875 -12.597656 1.515625 -11.828125 C 1.234375 -11.054688 1.015625 -10.273438 0.859375 -9.484375 Z M 0.859375 -9.484375 "/></g></g></g><g fill="#ffffff" fill-opacity="1"><g transform="translate(168.61173, 192.117073)"><g><path d="M 12.703125 -14 C 12.910156 -14.132812 13.066406 -14.210938 13.171875 -14.234375 C 13.429688 -14.265625 13.71875 -14.171875 14.03125 -13.953125 C 14.40625 -13.617188 14.539062 -13.203125 14.4375 -12.703125 C 14.257812 -12.359375 14.101562 -12.09375 13.96875 -11.90625 C 13.332031 -11.0625 12.695312 -10.1875 12.0625 -9.28125 C 11.425781 -8.375 10.765625 -7.460938 10.078125 -6.546875 C 9.203125 -5.390625 8.316406 -4.21875 7.421875 -3.03125 C 6.535156 -1.851562 5.632812 -0.660156 4.71875 0.546875 C 4.539062 0.796875 4.382812 1.023438 4.25 1.234375 C 4.125 1.441406 3.96875 1.664062 3.78125 1.90625 C 3.632812 2.03125 3.59375 2.3125 3.65625 2.75 C 3.84375 3.757812 4.019531 4.753906 4.1875 5.734375 C 4.351562 6.710938 4.484375 7.738281 4.578125 8.8125 C 4.648438 9.71875 4.679688 10.625 4.671875 11.53125 C 4.660156 12.4375 4.5625 13.359375 4.375 14.296875 C 4.1875 15.296875 3.753906 16.414062 3.078125 17.65625 C 2.410156 18.894531 1.597656 19.984375 0.640625 20.921875 C -0.304688 21.867188 -1.363281 22.425781 -2.53125 22.59375 C -3.382812 22.71875 -4.15625 22.640625 -4.84375 22.359375 C -5.53125 22.078125 -6.070312 21.53125 -6.46875 20.71875 C -6.9375 19.695312 -7.113281 18.609375 -7 17.453125 C -6.976562 16.847656 -6.882812 16.242188 -6.71875 15.640625 C -6.5625 15.046875 -6.414062 14.476562 -6.28125 13.9375 C -5.625 12.039062 -4.816406 10.222656 -3.859375 8.484375 C -2.910156 6.753906 -1.898438 5.054688 -0.828125 3.390625 C -0.597656 3.078125 -0.515625 2.707031 -0.578125 2.28125 C -0.785156 1.125 -1.007812 -0.03125 -1.25 -1.1875 C -1.5 -2.351562 -1.738281 -3.519531 -1.96875 -4.6875 C -2.289062 -6.601562 -2.316406 -8.554688 -2.046875 -10.546875 C -1.929688 -11.273438 -1.757812 -11.976562 -1.53125 -12.65625 C -1.300781 -13.332031 -0.957031 -13.984375 -0.5 -14.609375 C -0.238281 -15.078125 0.128906 -15.519531 0.609375 -15.9375 C 1.097656 -16.351562 1.632812 -16.601562 2.21875 -16.6875 C 3.070312 -16.8125 3.894531 -16.578125 4.6875 -15.984375 C 5.25 -15.460938 5.546875 -14.851562 5.578125 -14.15625 C 5.597656 -13.664062 5.5 -13.347656 5.28125 -13.203125 C 5.0625 -13.066406 4.765625 -12.972656 4.390625 -12.921875 C 4.222656 -12.890625 4.066406 -12.921875 3.921875 -13.015625 C 3.773438 -13.109375 3.644531 -13.171875 3.53125 -13.203125 C 3.28125 -13.390625 3.078125 -13.472656 2.921875 -13.453125 C 2.648438 -13.421875 2.414062 -13.128906 2.21875 -12.578125 C 2.03125 -12.035156 1.878906 -11.472656 1.765625 -10.890625 C 1.660156 -10.304688 1.597656 -9.898438 1.578125 -9.671875 C 1.535156 -8.359375 1.628906 -7.070312 1.859375 -5.8125 C 1.941406 -5.21875 2.054688 -4.601562 2.203125 -3.96875 C 2.347656 -3.332031 2.492188 -2.703125 2.640625 -2.078125 C 2.648438 -2.023438 2.65625 -1.972656 2.65625 -1.921875 C 2.664062 -1.867188 2.675781 -1.789062 2.6875 -1.6875 C 2.832031 -1.8125 2.976562 -1.960938 3.125 -2.140625 C 4.457031 -3.859375 5.789062 -5.570312 7.125 -7.28125 C 8.46875 -8.988281 9.804688 -10.691406 11.140625 -12.390625 C 11.273438 -12.585938 11.425781 -12.78125 11.59375 -12.96875 C 11.757812 -13.15625 11.90625 -13.335938 12.03125 -13.515625 C 12.320312 -13.773438 12.546875 -13.9375 12.703125 -14 Z M 0.609375 10.1875 C 0.609375 9.75 0.5625 9.304688 0.46875 8.859375 C 0.382812 8.410156 0.304688 7.941406 0.234375 7.453125 C 0.0976562 7.640625 0.015625 7.789062 -0.015625 7.90625 C -0.546875 8.851562 -1.140625 9.96875 -1.796875 11.25 C -2.453125 12.539062 -3 13.84375 -3.4375 15.15625 C -3.882812 16.46875 -4.03125 17.679688 -3.875 18.796875 C -3.769531 19.160156 -3.609375 19.328125 -3.390625 19.296875 C -3.285156 19.273438 -3.1875 19.234375 -3.09375 19.171875 C -2.945312 19.054688 -2.785156 18.941406 -2.609375 18.828125 C -2.429688 18.722656 -2.269531 18.632812 -2.125 18.5625 C -1.726562 18.226562 -1.382812 17.835938 -1.09375 17.390625 C -0.8125 16.953125 -0.5625 16.5 -0.34375 16.03125 C 0.113281 15.09375 0.410156 14.140625 0.546875 13.171875 C 0.679688 12.203125 0.703125 11.207031 0.609375 10.1875 Z M 0.609375 10.1875 "/></g></g></g><g fill="#ffffff" fill-opacity="1"><g transform="translate(181.238968, 190.344594)"><g><path d="M 28.34375 -15.234375 C 28.625 -15.160156 28.84375 -14.972656 29 -14.671875 C 29.15625 -14.367188 29.144531 -14.066406 28.96875 -13.765625 C 28.675781 -13.078125 28.253906 -12.394531 27.703125 -11.71875 C 27.148438 -11.039062 26.609375 -10.421875 26.078125 -9.859375 C 25.578125 -9.242188 25.054688 -8.613281 24.515625 -7.96875 C 23.984375 -7.320312 23.4375 -6.660156 22.875 -5.984375 C 22.363281 -5.367188 21.703125 -4.675781 20.890625 -3.90625 C 20.078125 -3.144531 19.195312 -2.460938 18.25 -1.859375 C 17.300781 -1.265625 16.394531 -0.910156 15.53125 -0.796875 C 14.257812 -0.617188 13.300781 -0.984375 12.65625 -1.890625 C 12.019531 -2.804688 11.625 -3.800781 11.46875 -4.875 C 11.3125 -5.601562 11.234375 -6.320312 11.234375 -7.03125 C 11.242188 -7.738281 11.304688 -8.453125 11.421875 -9.171875 C 11.453125 -9.722656 11.5 -10.273438 11.5625 -10.828125 C 11.625 -11.378906 11.671875 -11.925781 11.703125 -12.46875 C 11.734375 -12.695312 11.722656 -13 11.671875 -13.375 C 11.609375 -13.3125 11.539062 -13.257812 11.46875 -13.21875 C 11.394531 -13.1875 11.3125 -13.132812 11.21875 -13.0625 C 10.9375 -12.695312 10.640625 -12.34375 10.328125 -12 C 10.023438 -11.664062 9.707031 -11.3125 9.375 -10.9375 C 8.46875 -9.71875 7.632812 -8.429688 6.875 -7.078125 C 6.113281 -5.722656 5.398438 -4.316406 4.734375 -2.859375 C 4.523438 -2.398438 4.320312 -1.921875 4.125 -1.421875 C 3.925781 -0.929688 3.71875 -0.457031 3.5 0 C 3.414062 0.175781 3.332031 0.347656 3.25 0.515625 C 3.164062 0.679688 3.082031 0.859375 3 1.046875 C 2.75 1.515625 2.378906 1.785156 1.890625 1.859375 C 1.835938 1.859375 1.769531 1.847656 1.6875 1.828125 C 1.601562 1.816406 1.503906 1.820312 1.390625 1.84375 C 0.660156 1.664062 0.296875 1.203125 0.296875 0.453125 C 0.265625 0.234375 0.25 0.015625 0.25 -0.203125 C 0.257812 -0.421875 0.273438 -0.640625 0.296875 -0.859375 C 0.429688 -2.179688 0.554688 -3.503906 0.671875 -4.828125 C 0.785156 -6.148438 0.910156 -7.5 1.046875 -8.875 C 1.066406 -9.414062 1.117188 -9.953125 1.203125 -10.484375 C 1.296875 -11.015625 1.382812 -11.554688 1.46875 -12.109375 C 1.457031 -12.222656 1.484375 -12.441406 1.546875 -12.765625 C 1.492188 -12.765625 1.4375 -12.757812 1.375 -12.75 C 1.320312 -12.738281 1.242188 -12.726562 1.140625 -12.71875 C 0.765625 -12.769531 0.488281 -12.921875 0.3125 -13.171875 C 0.144531 -13.421875 0.113281 -13.710938 0.21875 -14.046875 C 0.3125 -14.222656 0.441406 -14.4375 0.609375 -14.6875 C 0.847656 -14.988281 1.078125 -15.25 1.296875 -15.46875 C 1.515625 -15.6875 1.707031 -15.914062 1.875 -16.15625 C 2.164062 -16.414062 2.320312 -16.710938 2.34375 -17.046875 C 3.457031 -22.578125 4.847656 -28 6.515625 -33.3125 C 8.191406 -38.632812 10.222656 -43.851562 12.609375 -48.96875 C 13.234375 -50.300781 13.914062 -51.617188 14.65625 -52.921875 C 15.40625 -54.222656 16.21875 -55.445312 17.09375 -56.59375 C 17.3125 -56.894531 17.5625 -57.203125 17.84375 -57.515625 C 18.132812 -57.835938 18.421875 -58.128906 18.703125 -58.390625 C 19.273438 -59.003906 19.90625 -59.359375 20.59375 -59.453125 C 21.382812 -59.566406 21.972656 -59.21875 22.359375 -58.40625 C 22.578125 -58.039062 22.722656 -57.597656 22.796875 -57.078125 C 22.941406 -56.441406 23.019531 -55.785156 23.03125 -55.109375 C 23.039062 -54.441406 23.039062 -53.78125 23.03125 -53.125 C 22.90625 -51.6875 22.664062 -50.273438 22.3125 -48.890625 C 21.96875 -47.515625 21.5625 -46.164062 21.09375 -44.84375 C 19.769531 -41.082031 18.398438 -37.648438 16.984375 -34.546875 C 15.578125 -31.441406 13.957031 -28.457031 12.125 -25.59375 C 10.300781 -22.726562 8.09375 -19.722656 5.5 -16.578125 C 5.332031 -16.503906 5.160156 -16.046875 4.984375 -15.203125 C 4.816406 -14.367188 4.644531 -13.394531 4.46875 -12.28125 C 4.300781 -11.164062 4.160156 -10.140625 4.046875 -9.203125 C 3.929688 -8.273438 3.84375 -7.664062 3.78125 -7.375 C 3.78125 -7.320312 3.816406 -7.242188 3.890625 -7.140625 C 3.921875 -7.265625 3.945312 -7.351562 3.96875 -7.40625 C 3.988281 -7.457031 4.019531 -7.515625 4.0625 -7.578125 C 4.675781 -8.640625 5.507812 -9.960938 6.5625 -11.546875 C 7.625 -13.140625 8.671875 -14.3125 9.703125 -15.0625 C 10.078125 -15.4375 10.472656 -15.734375 10.890625 -15.953125 C 11.191406 -16.160156 11.550781 -16.296875 11.96875 -16.359375 C 12.875 -16.484375 13.546875 -16.140625 13.984375 -15.328125 C 14.191406 -15.023438 14.332031 -14.71875 14.40625 -14.40625 C 14.476562 -14.09375 14.507812 -13.769531 14.5 -13.4375 C 14.519531 -12.851562 14.519531 -12.25 14.5 -11.625 C 14.488281 -11 14.46875 -10.378906 14.4375 -9.765625 C 14.4375 -9.398438 14.4375 -8.992188 14.4375 -8.546875 C 14.445312 -8.109375 14.429688 -7.675781 14.390625 -7.25 C 14.359375 -6.320312 14.488281 -5.390625 14.78125 -4.453125 C 14.894531 -4.015625 15.054688 -3.8125 15.265625 -3.84375 C 15.429688 -3.863281 15.5625 -3.914062 15.65625 -4 C 16.664062 -4.519531 17.628906 -5.085938 18.546875 -5.703125 C 19.460938 -6.328125 20.296875 -7.066406 21.046875 -7.921875 C 21.847656 -8.796875 22.632812 -9.664062 23.40625 -10.53125 C 24.1875 -11.40625 24.953125 -12.273438 25.703125 -13.140625 C 25.941406 -13.390625 26.175781 -13.664062 26.40625 -13.96875 C 26.632812 -14.28125 26.863281 -14.554688 27.09375 -14.796875 C 27.332031 -15.109375 27.585938 -15.28125 27.859375 -15.3125 C 27.953125 -15.332031 28.113281 -15.304688 28.34375 -15.234375 Z M 6.484375 -22.359375 C 6.398438 -22.117188 6.363281 -21.945312 6.375 -21.84375 C 6.425781 -21.851562 6.46875 -21.875 6.5 -21.90625 C 6.53125 -21.9375 6.570312 -21.953125 6.625 -21.953125 C 9.632812 -26.078125 12.285156 -30.390625 14.578125 -34.890625 C 16.878906 -39.398438 18.691406 -44.113281 20.015625 -49.03125 C 20.265625 -50.3125 20.460938 -51.585938 20.609375 -52.859375 C 20.753906 -54.128906 20.738281 -55.40625 20.5625 -56.6875 C 20.5 -56.738281 20.445312 -56.757812 20.40625 -56.75 C 20.363281 -56.6875 20.304688 -56.617188 20.234375 -56.546875 C 20.160156 -56.484375 20.101562 -56.394531 20.0625 -56.28125 C 19 -54.882812 18.050781 -53.476562 17.21875 -52.0625 C 16.394531 -50.644531 15.640625 -49.09375 14.953125 -47.40625 C 13.242188 -43.644531 11.613281 -39.546875 10.0625 -35.109375 C 8.519531 -30.679688 7.328125 -26.429688 6.484375 -22.359375 Z M 6.484375 -22.359375 "/></g></g></g><g fill="#ffffff" fill-opacity="1"><g transform="translate(209.690219, 186.350907)"><g/></g></g><g fill="#ffffff" fill-opacity="1"><g transform="translate(234.625024, 182.850821)"><g><path d="M 17.703125 -58.546875 C 19.347656 -58.785156 20.65625 -58.375 21.625 -57.3125 C 22.59375 -56.257812 23.304688 -55.0625 23.765625 -53.71875 C 24.234375 -52.25 24.578125 -50.738281 24.796875 -49.1875 C 25.015625 -47.644531 25.101562 -46.085938 25.0625 -44.515625 C 25.039062 -43.097656 24.867188 -41.375 24.546875 -39.34375 C 24.234375 -37.320312 23.804688 -35.238281 23.265625 -33.09375 C 22.734375 -30.957031 22.0625 -29.003906 21.25 -27.234375 C 20.4375 -25.460938 19.46875 -24.140625 18.34375 -23.265625 C 17.769531 -22.972656 17.273438 -22.800781 16.859375 -22.75 C 15.617188 -22.675781 14.703125 -23.390625 14.109375 -24.890625 C 13.804688 -25.828125 13.671875 -26.785156 13.703125 -27.765625 C 13.742188 -29.460938 13.96875 -31.070312 14.375 -32.59375 C 14.789062 -34.113281 15.242188 -35.640625 15.734375 -37.171875 C 15.796875 -37.453125 15.925781 -37.691406 16.125 -37.890625 C 16.300781 -38.128906 16.492188 -38.265625 16.703125 -38.296875 C 16.804688 -38.304688 16.976562 -38.273438 17.21875 -38.203125 C 17.675781 -37.992188 17.941406 -37.65625 18.015625 -37.1875 C 17.984375 -37.007812 17.976562 -36.828125 18 -36.640625 C 18.03125 -36.453125 18.003906 -36.269531 17.921875 -36.09375 C 17.859375 -35.707031 17.789062 -35.289062 17.71875 -34.84375 C 17.65625 -34.40625 17.566406 -33.957031 17.453125 -33.5 C 17.265625 -32.613281 17.097656 -31.695312 16.953125 -30.75 C 16.804688 -29.800781 16.75 -28.835938 16.78125 -27.859375 C 16.757812 -27.640625 16.765625 -27.425781 16.796875 -27.21875 C 16.828125 -27.007812 16.859375 -26.769531 16.890625 -26.5 C 17.160156 -26.53125 17.3125 -26.632812 17.34375 -26.8125 C 18.425781 -28.050781 19.320312 -29.722656 20.03125 -31.828125 C 20.738281 -33.929688 21.300781 -36.097656 21.71875 -38.328125 C 22.132812 -40.566406 22.394531 -42.457031 22.5 -44 C 22.582031 -45.363281 22.570312 -46.71875 22.46875 -48.0625 C 22.363281 -49.414062 22.109375 -50.742188 21.703125 -52.046875 C 21.585938 -52.503906 21.410156 -52.988281 21.171875 -53.5 C 20.941406 -54.019531 20.671875 -54.445312 20.359375 -54.78125 C 19.867188 -55.519531 19.222656 -55.832031 18.421875 -55.71875 C 17.722656 -55.625 17.09375 -55.269531 16.53125 -54.65625 C 15.945312 -54.1875 15.425781 -53.632812 14.96875 -53 C 14.519531 -52.363281 14.09375 -51.722656 13.6875 -51.078125 C 12.34375 -48.710938 11.1875 -46.035156 10.21875 -43.046875 C 9.25 -40.054688 8.445312 -36.941406 7.8125 -33.703125 C 7.175781 -30.460938 6.710938 -27.273438 6.421875 -24.140625 C 6.140625 -21.003906 6.019531 -18.132812 6.0625 -15.53125 C 6.09375 -13.6875 6.171875 -11.832031 6.296875 -9.96875 C 6.421875 -8.113281 6.671875 -6.265625 7.046875 -4.421875 C 7.253906 -3.691406 7.445312 -2.957031 7.625 -2.21875 C 7.8125 -1.476562 8.0625 -0.78125 8.375 -0.125 C 8.738281 0.476562 9.054688 1.007812 9.328125 1.46875 C 9.671875 1.957031 10.085938 2.171875 10.578125 2.109375 C 10.679688 2.085938 10.753906 2.0625 10.796875 2.03125 C 10.847656 2 10.898438 1.976562 10.953125 1.96875 C 11.140625 1.832031 11.347656 1.707031 11.578125 1.59375 C 11.816406 1.476562 12.039062 1.351562 12.25 1.21875 C 13.582031 0.375 14.769531 -1 15.8125 -2.90625 C 16.851562 -4.820312 17.765625 -6.945312 18.546875 -9.28125 C 19.335938 -11.625 19.984375 -13.890625 20.484375 -16.078125 C 20.992188 -18.265625 21.335938 -20.082031 21.515625 -21.53125 C 21.578125 -21.8125 21.664062 -22.394531 21.78125 -23.28125 C 21.90625 -24.164062 22.035156 -24.695312 22.171875 -24.875 C 22.378906 -25.394531 22.722656 -25.6875 23.203125 -25.75 C 23.253906 -25.757812 23.304688 -25.753906 23.359375 -25.734375 C 23.410156 -25.710938 23.460938 -25.707031 23.515625 -25.71875 C 24.148438 -25.53125 24.535156 -25.148438 24.671875 -24.578125 C 24.691406 -24.410156 24.710938 -24.25 24.734375 -24.09375 C 24.753906 -23.9375 24.78125 -23.78125 24.8125 -23.625 C 24.644531 -18.539062 24.578125 -13.445312 24.609375 -8.34375 C 24.648438 -3.238281 24.867188 1.863281 25.265625 6.96875 C 25.304688 8.050781 25.375 9.128906 25.46875 10.203125 C 25.570312 11.273438 25.640625 12.351562 25.671875 13.4375 C 25.640625 13.59375 25.632812 13.738281 25.65625 13.875 C 25.675781 14.007812 25.671875 14.164062 25.640625 14.34375 C 25.597656 15.101562 25.222656 15.53125 24.515625 15.625 C 23.828125 15.726562 23.300781 15.476562 22.9375 14.875 C 22.738281 14.570312 22.613281 14.238281 22.5625 13.875 C 22.414062 13.1875 22.296875 12.503906 22.203125 11.828125 C 22.109375 11.160156 22.007812 10.484375 21.90625 9.796875 C 21.851562 9.367188 21.769531 8.382812 21.65625 6.84375 C 21.550781 5.3125 21.453125 3.628906 21.359375 1.796875 C 21.265625 -0.0234375 21.164062 -1.703125 21.0625 -3.234375 C 20.957031 -4.765625 20.875 -5.75 20.8125 -6.1875 C 20.8125 -6.238281 20.804688 -6.273438 20.796875 -6.296875 C 20.796875 -6.328125 20.789062 -6.367188 20.78125 -6.421875 C 20.28125 -4.941406 19.601562 -3.253906 18.75 -1.359375 C 17.894531 0.523438 16.847656 2.191406 15.609375 3.640625 C 14.378906 5.085938 12.863281 5.9375 11.0625 6.1875 C 9.507812 6.40625 8.070312 5.875 6.75 4.59375 C 5.726562 3.488281 4.953125 2.210938 4.421875 0.765625 C 3.898438 -0.679688 3.476562 -2.140625 3.15625 -3.609375 C 2.476562 -6.890625 2.101562 -10.179688 2.03125 -13.484375 C 1.957031 -15.867188 2.007812 -18.253906 2.1875 -20.640625 C 2.375 -23.035156 2.65625 -25.398438 3.03125 -27.734375 C 3.25 -29.234375 3.625 -31.210938 4.15625 -33.671875 C 4.6875 -36.140625 5.363281 -38.75 6.1875 -41.5 C 7.019531 -44.257812 8.007812 -46.882812 9.15625 -49.375 C 10.300781 -51.875 11.582031 -53.96875 13 -55.65625 C 14.425781 -57.34375 15.992188 -58.304688 17.703125 -58.546875 Z M 17.703125 -58.546875 "/></g></g></g><g clip-path="url(#9b4c215579)"><g clip-path="url(#6ebc0e4b33)"><g clip-path="url(#590e0619c0)"><path fill="#ffffff" d="M 265.722656 197.117188 C 261.078125 198.933594 256.199219 200.589844 251.066406 202.160156 C 226.402344 209.738281 197.308594 215.121094 173.800781 223.605469 C 172.660156 224.027344 172.59375 224.921875 172.578125 225 C 172.566406 225.234375 172.796875 227.222656 174.625 226.960938 C 174.882812 226.929688 175.878906 226.664062 176.277344 226.59375 C 183.214844 224.804688 190.066406 222.847656 196.949219 221 C 198.6875 220.53125 200.398438 220.109375 202.109375 219.6875 C 211.089844 217.429688 219.972656 215.535156 228.898438 213.933594 C 237.835938 212.371094 246.804688 211.0625 256 210.039062 C 256.921875 209.941406 257.601562 209.074219 257.507812 208.148438 C 257.402344 207.1875 256.542969 206.542969 255.617188 206.640625 C 251.039062 207.148438 246.546875 207.707031 242.078125 208.339844 C 245.484375 207.425781 248.835938 206.449219 252.105469 205.453125 C 258.8125 203.386719 265.242188 201.125 271.113281 198.632812 C 272.308594 198.125 272.957031 197.570312 273.238281 197.1875 C 273.695312 196.496094 273.703125 195.808594 273.433594 195.234375 C 273.238281 194.792969 272.765625 194.160156 271.699219 193.875 C 270.097656 193.429688 266 193.46875 260.1875 194.34375 C 257.886719 194.695312 253.324219 195.695312 248.441406 196.777344 C 241.269531 198.402344 233.410156 200.285156 230.996094 200.933594 C 215.078125 205.097656 191.265625 210.890625 169.609375 218.34375 C 154.511719 223.582031 140.421875 229.609375 130.824219 236.488281 C 130.058594 237.035156 129.855469 238.117188 130.4375 238.875 C 130.984375 239.640625 132.023438 239.816406 132.824219 239.261719 C 142.203125 232.554688 155.957031 226.691406 170.753906 221.613281 C 192.292969 214.148438 216.007812 208.421875 231.882812 204.234375 C 234.269531 203.628906 242.085938 201.71875 249.1875 200.117188 C 253.996094 199.050781 258.453125 198.082031 260.71875 197.738281 C 262.621094 197.457031 264.273438 197.238281 265.722656 197.117188 Z M 265.722656 197.117188 " fill-opacity="1" fill-rule="evenodd"/></g></g></g></svg>